<svg width="883" height="200" viewBox="0 0 883 200" fill="none" xmlns="http://www.w3.org/2000/svg">
<g id="rock">
<g id="flame">
<path id="Vector" d="M763.115 169.889C654.511 166.624 655.414 136.608 656.526 99.5911C657.102 80.4534 657.621 63.1885 672.99 51.4302C677.407 48.0496 683.059 45.1158 690.294 42.7314C706.557 37.3611 730.832 34.7309 767.145 35.8225C781.109 36.2422 794.688 40.2868 807.306 46.2487C813.381 49.1151 819.228 52.4252 824.793 55.9933C831.605 60.357 837.992 65.1072 843.823 69.8817C847.744 73.0828 851.417 76.3072 854.804 79.4308C870.439 93.8624 880.019 106.309 880.019 106.309C880.019 106.309 823.095 171.692 763.115 169.889Z" fill="#F27400"/>
<path id="Vector_2" d="M764.111 156.294C679 153.735 679.712 130.062 680.589 100.868C681.043 85.7741 681.452 72.1576 693.499 62.8819C696.961 60.2151 701.391 57.9004 707.061 56.0188C719.807 51.7809 738.832 49.703 767.29 50.5584C778.233 50.8873 788.874 54.0752 798.762 58.7753C803.522 61.035 808.104 63.6447 812.464 66.458C817.803 69.8984 822.807 73.6438 827.376 77.4085C830.448 79.9325 833.327 82.475 835.981 84.938C848.232 96.3175 855.738 106.132 855.738 106.132C855.738 106.132 811.117 157.706 764.111 156.294Z" fill="url(#paint0_linear)"/>
</g>
<g id="rocket">
<path id="Vector_3" d="M609.909 6.55335C586.088 15.4912 581.692 27.6727 581.829 35.7161L578.011 35.6133L574.629 161.183L578.447 161.285C577.878 169.31 581.612 181.71 604.917 191.917C642.767 208.495 709.218 185.152 709.218 185.152C709.218 185.152 617.123 196.103 617.719 151.518C622.858 147.794 627.283 143.174 630.781 137.878L655.453 138.543L657.392 66.569L634.966 65.965C631.587 58.8333 626.65 52.5513 620.518 47.5827C622.323 3.03066 713.695 18.9226 713.695 18.9226C713.695 18.9226 648.597 -7.9626 609.909 6.55335Z" fill="#6C63FF"/>
<path id="Vector_4" d="M299.74 11.9963C578.683 19.5088 577.739 54.5845 576.574 97.84C575.971 120.203 575.428 140.378 536.512 153.607C525.327 157.411 510.951 160.65 492.488 163.193C450.986 168.92 388.789 171.171 295.521 168.659C259.656 167.693 224.611 162.5 191.947 155.098C176.222 151.539 161.061 147.469 146.614 143.107C128.926 137.771 112.314 131.998 97.1276 126.216C86.9159 122.339 77.3391 118.443 68.5007 114.674C27.7052 97.2634 2.54321 82.3802 2.54321 82.3802C2.54321 82.3802 145.685 7.84727 299.74 11.9963Z" fill="#F2F2F2"/>
<path id="Vector_5" d="M208.596 88.2215C209.237 64.4444 190.481 44.6501 166.704 44.0098C142.927 43.3694 123.132 62.1254 122.492 85.9025C121.852 109.68 140.608 129.474 164.385 130.114C188.162 130.755 207.956 111.999 208.596 88.2215Z" fill="#3F3D56"/>
<path id="Vector_6" d="M199.47 87.5463C199.968 69.0529 185.38 53.6574 166.887 53.1593C148.393 52.6613 132.998 67.2493 132.5 85.7426C132.002 104.236 146.59 119.631 165.083 120.13C183.576 120.628 198.972 106.04 199.47 87.5463Z" fill="#6C63FF"/>
</g>
</g>
<defs>
<linearGradient id="paint0_linear" x1="855.738" y1="106.132" x2="680.589" y2="100.868" gradientUnits="userSpaceOnUse">
<stop stop-color="#FF7A00"/>
<stop offset="1" stop-color="#FFB470"/>
</linearGradient>
</defs>
</svg>
